<mxfile host="app.diagrams.net" modified="2023-03-01T12:47:40.943Z" agent="5.0 (Windows NT 10.0; Win64; x64) AppleWebKit/537.36 (KHTML, like Gecko) Chrome/110.0.0.0 Safari/537.36" etag="yjHfrHTdXCmKDzWRjlnt" version="20.8.23" type="github">
  <diagram id="C5RBs43oDa-KdzZeNtuy" name="Page-1">
    <mxGraphModel dx="1434" dy="834" grid="1" gridSize="10" guides="1" tooltips="1" connect="1" arrows="1" fold="1" page="1" pageScale="1" pageWidth="827" pageHeight="1169" math="0" shadow="0">
      <root>
        <mxCell id="WIyWlLk6GJQsqaUBKTNV-0" />
        <mxCell id="WIyWlLk6GJQsqaUBKTNV-1" parent="WIyWlLk6GJQsqaUBKTNV-0" />
        <mxCell id="AG4V9Lh4A39d6LtiC6zN-6" value="" style="edgeStyle=orthogonalEdgeStyle;rounded=0;orthogonalLoop=1;jettySize=auto;html=1;" edge="1" parent="WIyWlLk6GJQsqaUBKTNV-1" source="AG4V9Lh4A39d6LtiC6zN-0" target="AG4V9Lh4A39d6LtiC6zN-2">
          <mxGeometry relative="1" as="geometry" />
        </mxCell>
        <mxCell id="AG4V9Lh4A39d6LtiC6zN-0" value="START/STOP" style="ellipse;whiteSpace=wrap;html=1;" vertex="1" parent="WIyWlLk6GJQsqaUBKTNV-1">
          <mxGeometry x="354" y="80" width="120" height="80" as="geometry" />
        </mxCell>
        <mxCell id="AG4V9Lh4A39d6LtiC6zN-7" value="" style="edgeStyle=orthogonalEdgeStyle;rounded=0;orthogonalLoop=1;jettySize=auto;html=1;" edge="1" parent="WIyWlLk6GJQsqaUBKTNV-1" source="AG4V9Lh4A39d6LtiC6zN-2" target="AG4V9Lh4A39d6LtiC6zN-3">
          <mxGeometry relative="1" as="geometry" />
        </mxCell>
        <mxCell id="AG4V9Lh4A39d6LtiC6zN-2" value="Pobierz a i b" style="rounded=0;whiteSpace=wrap;html=1;" vertex="1" parent="WIyWlLk6GJQsqaUBKTNV-1">
          <mxGeometry x="354" y="190" width="120" height="60" as="geometry" />
        </mxCell>
        <mxCell id="AG4V9Lh4A39d6LtiC6zN-8" value="" style="edgeStyle=orthogonalEdgeStyle;rounded=0;orthogonalLoop=1;jettySize=auto;html=1;" edge="1" parent="WIyWlLk6GJQsqaUBKTNV-1" source="AG4V9Lh4A39d6LtiC6zN-3" target="AG4V9Lh4A39d6LtiC6zN-4">
          <mxGeometry relative="1" as="geometry" />
        </mxCell>
        <mxCell id="AG4V9Lh4A39d6LtiC6zN-3" value="a + b" style="rounded=0;whiteSpace=wrap;html=1;" vertex="1" parent="WIyWlLk6GJQsqaUBKTNV-1">
          <mxGeometry x="354" y="280" width="120" height="60" as="geometry" />
        </mxCell>
        <mxCell id="AG4V9Lh4A39d6LtiC6zN-4" value="Stop" style="ellipse;whiteSpace=wrap;html=1;" vertex="1" parent="WIyWlLk6GJQsqaUBKTNV-1">
          <mxGeometry x="354" y="370" width="120" height="80" as="geometry" />
        </mxCell>
      </root>
    </mxGraphModel>
  </diagram>
</mxfile>
